<svg xmlns="http://www.w3.org/2000/svg" viewBox="0 0 800 800" width="800" height="800" role="img" aria-label="vega"><defs><radialGradient id="glow" cx="50%" cy="50%" r="50%"><stop offset="0%" stop-color="#ecf4ff" stop-opacity="1"/><stop offset="18%" stop-color="#ecf4ff" stop-opacity="0.75"/><stop offset="45%" stop-color="#9fc6ff" stop-opacity="0.32"/><stop offset="100%" stop-color="#9fc6ff" stop-opacity="0"/></radialGradient><radialGradient id="core" cx="50%" cy="50%" r="50%"><stop offset="0%" stop-color="#ffffff"/><stop offset="55%" stop-color="#ecf4ff"/><stop offset="100%" stop-color="#9fc6ff"/></radialGradient><filter id="soft"><feGaussianBlur stdDeviation="6"/></filter></defs><rect width="800" height="800" fill="#04050d"/><circle cx="87.5" cy="41.6" r="1.1" fill="#fff" opacity="0.53"/><circle cx="676.8" cy="637.8" r="2.3" fill="#fff" opacity="0.92"/><circle cx="787.2" cy="153.0" r="1.4" fill="#fff" opacity="0.57"/><circle cx="330.3" cy="547.6" r="1.8" fill="#fff" opacity="0.49"/><circle cx="389.4" cy="522.7" r="2.3" fill="#fff" opacity="0.64"/><circle cx="227.5" cy="267.0" r="0.7" fill="#fff" opacity="0.68"/><circle cx="686.5" cy="767.5" r="2.3" fill="#fff" opacity="0.59"/><circle cx="53.0" cy="744.5" r="0.7" fill="#fff" opacity="0.41"/><circle cx="387.1" cy="324.9" r="1.4" fill="#fff" opacity="0.89"/><circle cx="136.1" cy="774.4" r="0.7" fill="#fff" opacity="0.93"/><circle cx="83.2" cy="460.8" r="1.4" fill="#fff" opacity="0.73"/><circle cx="489.9" cy="544.4" r="1.8" fill="#fff" opacity="0.37"/><circle cx="776.3" cy="233.4" r="0.7" fill="#fff" opacity="0.78"/><circle cx="464.5" cy="355.3" r="1.1" fill="#fff" opacity="0.55"/><circle cx="225.9" cy="461.2" r="1.1" fill="#fff" opacity="0.75"/><circle cx="332.3" cy="488.9" r="0.9" fill="#fff" opacity="0.81"/><circle cx="548.1" cy="496.4" r="1.8" fill="#fff" opacity="0.69"/><circle cx="415.4" cy="84.5" r="2.3" fill="#fff" opacity="0.35"/><circle cx="265.7" cy="570.4" r="0.9" fill="#fff" opacity="0.68"/><circle cx="690.6" cy="495.7" r="0.9" fill="#fff" opacity="0.28"/><circle cx="431.0" cy="623.6" r="1.4" fill="#fff" opacity="0.53"/><circle cx="668.9" cy="243.6" r="2.3" fill="#fff" opacity="0.39"/><circle cx="491.8" cy="641.8" r="1.4" fill="#fff" opacity="0.62"/><circle cx="771.8" cy="429.5" r="1.8" fill="#fff" opacity="0.64"/><circle cx="460.9" cy="710.0" r="1.1" fill="#fff" opacity="0.82"/><circle cx="470.1" cy="336.4" r="1.8" fill="#fff" opacity="0.53"/><circle cx="799.2" cy="639.5" r="1.4" fill="#fff" opacity="0.36"/><circle cx="780.9" cy="47.0" r="1.1" fill="#fff" opacity="0.67"/><circle cx="223.5" cy="792.6" r="2.3" fill="#fff" opacity="0.82"/><circle cx="312.1" cy="40.5" r="1.1" fill="#fff" opacity="0.46"/><circle cx="154.1" cy="757.9" r="1.1" fill="#fff" opacity="0.93"/><circle cx="97.6" cy="43.4" r="1.4" fill="#fff" opacity="0.65"/><circle cx="457.4" cy="762.1" r="1.8" fill="#fff" opacity="0.73"/><circle cx="389.6" cy="5.7" r="0.9" fill="#fff" opacity="0.90"/><circle cx="622.5" cy="784.1" r="1.1" fill="#fff" opacity="0.63"/><circle cx="399.7" cy="327.6" r="2.3" fill="#fff" opacity="0.30"/><circle cx="480.7" cy="626.6" r="1.8" fill="#fff" opacity="0.60"/><circle cx="438.0" cy="432.8" r="1.4" fill="#fff" opacity="0.29"/><circle cx="724.2" cy="377.1" r="1.1" fill="#fff" opacity="0.55"/><circle cx="338.2" cy="258.0" r="1.1" fill="#fff" opacity="0.82"/><circle cx="587.3" cy="283.7" r="0.7" fill="#fff" opacity="0.59"/><circle cx="55.4" cy="682.0" r="1.8" fill="#fff" opacity="0.46"/><circle cx="108.3" cy="335.5" r="1.1" fill="#fff" opacity="0.90"/><circle cx="307.5" cy="113.1" r="1.8" fill="#fff" opacity="0.35"/><circle cx="721.8" cy="224.5" r="2.3" fill="#fff" opacity="0.63"/><circle cx="613.6" cy="263.4" r="1.1" fill="#fff" opacity="0.79"/><circle cx="507.1" cy="214.9" r="1.8" fill="#fff" opacity="0.56"/><circle cx="282.9" cy="470.3" r="2.3" fill="#fff" opacity="0.91"/><circle cx="232.0" cy="671.0" r="0.7" fill="#fff" opacity="0.46"/><circle cx="262.5" cy="500.7" r="1.1" fill="#fff" opacity="0.71"/><circle cx="721.9" cy="760.8" r="1.8" fill="#fff" opacity="0.61"/><circle cx="70.7" cy="258.1" r="1.4" fill="#fff" opacity="0.66"/><circle cx="672.5" cy="389.9" r="2.3" fill="#fff" opacity="0.68"/><circle cx="92.0" cy="490.7" r="1.4" fill="#fff" opacity="0.49"/><circle cx="485.7" cy="446.9" r="1.1" fill="#fff" opacity="0.83"/><circle cx="428.7" cy="694.8" r="2.3" fill="#fff" opacity="0.42"/><circle cx="696.1" cy="645.5" r="1.1" fill="#fff" opacity="0.29"/><circle cx="414.5" cy="305.6" r="0.7" fill="#fff" opacity="0.37"/><circle cx="109.1" cy="459.1" r="1.4" fill="#fff" opacity="0.53"/><circle cx="461.1" cy="634.9" r="1.1" fill="#fff" opacity="0.79"/><circle cx="92.6" cy="558.7" r="1.8" fill="#fff" opacity="0.81"/><circle cx="524.2" cy="62.5" r="1.1" fill="#fff" opacity="0.33"/><circle cx="320.9" cy="354.2" r="2.3" fill="#fff" opacity="0.91"/><circle cx="101.4" cy="713.9" r="1.1" fill="#fff" opacity="0.25"/><circle cx="286.9" cy="384.1" r="1.4" fill="#fff" opacity="0.38"/><circle cx="69.0" cy="175.1" r="0.7" fill="#fff" opacity="0.74"/><circle cx="217.5" cy="793.3" r="2.3" fill="#fff" opacity="0.87"/><circle cx="428.4" cy="700.3" r="1.4" fill="#fff" opacity="0.87"/><circle cx="198.0" cy="109.8" r="0.9" fill="#fff" opacity="0.65"/><circle cx="540.5" cy="173.3" r="0.9" fill="#fff" opacity="0.64"/><circle cx="461.9" cy="509.2" r="2.3" fill="#fff" opacity="0.76"/><circle cx="267.4" cy="124.6" r="1.8" fill="#fff" opacity="0.58"/><circle cx="176.5" cy="156.3" r="1.4" fill="#fff" opacity="0.75"/><circle cx="434.7" cy="584.2" r="1.4" fill="#fff" opacity="0.31"/><circle cx="675.9" cy="472.5" r="0.7" fill="#fff" opacity="0.94"/><circle cx="561.2" cy="492.8" r="1.4" fill="#fff" opacity="0.48"/><circle cx="111.5" cy="448.4" r="0.7" fill="#fff" opacity="0.90"/><circle cx="224.2" cy="159.1" r="1.4" fill="#fff" opacity="0.42"/><circle cx="660.8" cy="707.1" r="2.3" fill="#fff" opacity="0.49"/><circle cx="99.6" cy="766.3" r="0.7" fill="#fff" opacity="0.40"/><circle cx="727.8" cy="626.4" r="1.8" fill="#fff" opacity="0.51"/><circle cx="121.4" cy="310.5" r="1.4" fill="#fff" opacity="0.45"/><circle cx="589.5" cy="168.9" r="2.3" fill="#fff" opacity="0.40"/><circle cx="292.7" cy="235.2" r="1.8" fill="#fff" opacity="0.74"/><circle cx="154.1" cy="150.7" r="1.1" fill="#fff" opacity="0.88"/><circle cx="68.4" cy="296.4" r="1.4" fill="#fff" opacity="0.60"/><circle cx="55.2" cy="146.5" r="1.8" fill="#fff" opacity="0.84"/><circle cx="753.6" cy="60.3" r="0.9" fill="#fff" opacity="0.46"/><circle cx="685.6" cy="269.7" r="1.8" fill="#fff" opacity="0.28"/><circle cx="399.2" cy="178.4" r="0.7" fill="#fff" opacity="0.77"/><circle cx="400" cy="400" r="520" fill="url(#glow)"/><g opacity="0.5" filter="url(#soft)"><rect x="-40.00000000000006" y="397" width="880" height="6" fill="#ecf4ff"/><rect x="397" y="-40.00000000000006" width="6" height="880" fill="#ecf4ff"/></g><circle cx="400" cy="400" r="124" fill="url(#core)"/><circle cx="368.0" cy="364.0" r="40" fill="#fff" opacity="0.9"/></svg>